# xmcd
#
# Track frame offsets:
#	150
#	17119
#	46872
#	66618
#	86550
#	110515
#	137062
#	161495
#	181127
#	204757
#
# Disc length: 3150 seconds
#
# Revision: 1
# Processed by: cddbd v1.4PL0 Copyright (c) Steve Scherf et al.
# Submitted via: audiograbber 1.82.02
#
DISCID=810c4c0a
DTITLE=DECHA CHASANGUAN - AMAZING PONGLANG
DYEAR=1900
DGENRE=
TTITLE0=AMAZING PONGLANG PART 1
TTITLE1=ANCIEN POOTHAI
TTITLE2=MANORA LEN NAM
TTITLE3=MA LANG POO TORMDORG
TTITLE4=SERNG GA PO
TTITLE5=SANG SIN CHAI
TTITLE6=RUM POOTHAI KEN FAI
TTITLE7=SERN TAM NA
TTITLE8=SRI KOTRABOON
TTITLE9=YAE KAI MOD DAENG
EXTD=
EXTT0=
EXTT1=
EXTT2=
EXTT3=
EXTT4=
EXTT5=
EXTT6=
EXTT7=
EXTT8=
EXTT9=
PLAYORDER=
